<svg width="154" height="200" viewBox="0 0 154 200" fill="none" xmlns="http://www.w3.org/2000/svg">
<rect width="154" height="200" rx="30" fill="#EC4899"/>
<g filter="url(#filter0_d_16_5)">
<path d="M71.3584 112.676C70.4502 112.529 69.7617 112.28 69.293 111.929C68.8242 111.577 68.5312 110.991 68.4141 110.171L67.4912 101.514C67.3154 100.605 67.4326 99.873 67.8428 99.3164C68.2822 98.7598 68.9707 98.4375 69.9082 98.3496C74.5957 98.0273 77.9209 97.1631 79.8838 95.7568C81.876 94.3213 82.8721 92.4023 82.8721 90C82.8721 87.9785 82.0225 86.3672 80.3232 85.166C78.624 83.9355 76.2363 83.3203 73.1602 83.3203C70.377 83.3203 67.667 83.6572 65.0303 84.3311C62.4229 85.0049 60.4893 85.8398 59.2295 86.8359C58.5557 87.5391 57.8232 87.7295 57.0322 87.4072C56.2705 87.085 55.8896 86.3965 55.8896 85.3418V76.5088C55.8896 74.8975 56.6367 73.8428 58.1309 73.3447C62.8184 71.9678 68.0479 71.2793 73.8193 71.2793C81.29 71.2793 87.3105 72.8906 91.8809 76.1133C96.4512 79.3359 98.707 83.4814 98.6484 88.5498C98.6484 92.6514 97.4766 95.8008 95.1328 97.998C92.7891 100.195 89.127 101.909 84.1465 103.14C82.7988 103.579 82.0518 104.443 81.9053 105.732L81.5537 110.171C81.4658 110.962 81.1875 111.548 80.7188 111.929C80.25 112.28 79.5615 112.529 78.6533 112.676C76.1631 112.939 73.7314 112.939 71.3584 112.676ZM82.3887 132.803C80.4844 134.502 78.0088 135.352 74.9619 135.352C71.915 135.352 69.4395 134.502 67.5352 132.803C65.6602 131.104 64.7227 128.716 64.7227 125.64C64.7227 122.534 65.6602 120.117 67.5352 118.389C69.4395 116.631 71.915 115.752 74.9619 115.752C78.0088 115.752 80.4844 116.631 82.3887 118.389C84.293 120.146 85.2451 122.593 85.2451 125.728C85.2451 128.745 84.293 131.104 82.3887 132.803Z" fill="#7CFADC"/>
</g>
<defs>
<filter id="filter0_d_16_5" x="51.8896" y="71.2793" width="50.8467" height="72.0723" filterUnits="userSpaceOnUse" color-interpolation-filters="sRGB">
<feFlood flood-opacity="0" result="BackgroundImageFix"/>
<feColorMatrix in="SourceAlpha" type="matrix" values="0 0 0 0 0 0 0 0 0 0 0 0 0 0 0 0 0 0 127 0" result="hardAlpha"/>
<feOffset dy="4"/>
<feGaussianBlur stdDeviation="2"/>
<feComposite in2="hardAlpha" operator="out"/>
<feColorMatrix type="matrix" values="0 0 0 0 0 0 0 0 0 0 0 0 0 0 0 0 0 0 0.25 0"/>
<feBlend mode="normal" in2="BackgroundImageFix" result="effect1_dropShadow_16_5"/>
<feBlend mode="normal" in="SourceGraphic" in2="effect1_dropShadow_16_5" result="shape"/>
</filter>
</defs>
</svg>
