<?xml version="1.0" encoding="UTF-8"?>
<svg version="1.1" xmlns="http://www.w3.org/2000/svg" width="512" height="512">
<path d="M0 0 C1.12317627 0.00081573 1.12317627 0.00081573 2.26904297 0.00164795 C14.4177615 0.04213072 25.77698766 0.98835199 37.5 4.375 C38.23460449 4.57335449 38.96920898 4.77170898 39.72607422 4.97607422 C72.16866554 13.87036807 101.75338358 35.75573324 119.5 64.375 C120.07886963 65.29998291 120.07886963 65.29998291 120.66943359 66.24365234 C136.83681326 92.47487642 141.8803911 120.65376332 141.6953125 151.09375 C141.69157103 152.93176111 141.68872944 154.76977425 141.68673706 156.60778809 C141.67918975 161.38834377 141.65962053 166.16877316 141.6373291 170.94927979 C141.61667608 175.85028374 141.60769423 180.75130859 141.59765625 185.65234375 C141.57636397 195.22661724 141.54233909 204.80079802 141.5 214.375 C142.29583496 214.35405273 143.09166992 214.33310547 143.91162109 214.31152344 C147.56594888 214.22766232 151.22007333 214.17611786 154.875 214.125 C156.12667969 214.09148437 157.37835938 214.05796875 158.66796875 214.0234375 C169.92955598 213.90551512 179.26633151 216.36294164 187.5 224.375 C193.73042514 231.92032749 196.81025136 238.35613371 196.76742554 248.24237061 C196.77195665 249.01631644 196.77648776 249.79026228 196.78115618 250.58766103 C196.79377894 253.17145775 196.79218119 255.75504311 196.79052734 258.33886719 C196.79651398 260.19542714 196.80331984 262.05198461 196.81088257 263.90853882 C196.82853741 268.94589773 196.83323777 273.98318867 196.83451414 279.02057552 C196.83593675 282.1702107 196.84020846 285.31982864 196.84550858 288.46945953 C196.86400813 299.46467687 196.8721794 310.45984574 196.87060547 321.45507812 C196.86940454 331.69225946 196.89049755 341.9292298 196.9220928 352.16635776 C196.94827694 360.96487375 196.95897184 369.76332094 196.95769465 378.56187558 C196.95718559 383.81261441 196.96283788 389.06316576 196.98405075 394.31386566 C197.00346874 399.25516433 197.00353321 404.19609736 196.98901749 409.13740921 C196.98693261 410.94573376 196.99161102 412.7540814 197.0037384 414.56236649 C197.08932538 428.21383245 195.73497349 437.93759414 186.015625 448.171875 C179.95463346 453.47994833 172.88174981 456.49522163 164.84888363 456.50922108 C163.66472298 456.51367892 162.48056232 456.51813676 161.26051801 456.52272969 C159.95315532 456.52254533 158.64579262 456.52236097 157.29881287 456.52217102 C155.90091746 456.52546979 154.50302301 456.52919538 153.10512978 456.5333125 C149.25467742 456.54333941 145.40424066 456.54705041 141.5537771 456.54970181 C137.4043088 456.55360289 133.25485287 456.56318145 129.10539246 456.57191467 C119.07907176 456.591686 109.05275004 456.60174673 99.02641472 456.61064246 C94.30523287 456.6150248 89.58405214 456.6203918 84.86287117 456.62563133 C69.1686638 456.64264527 53.47445714 456.65713906 37.78024197 456.66438007 C33.70660336 456.66628998 29.63296476 456.66821031 25.55932617 456.67016602 C24.54683676 456.67064976 23.53434734 456.6711335 22.49117643 456.6716319 C6.09251025 456.67993072 -10.30608296 456.70526441 -26.70471729 456.73774669 C-43.53978676 456.77082161 -60.37481916 456.78882928 -77.2099213 456.79202431 C-86.66258737 456.79418915 -96.11514705 456.80293382 -105.56778145 456.82848549 C-113.61897466 456.85019848 -121.67003566 456.85824 -129.72125483 456.84851871 C-133.82783327 456.84397556 -137.93413895 456.84586087 -142.04067993 456.86528015 C-145.80438238 456.8829241 -149.56761333 456.88190445 -153.33132087 456.86638286 C-155.32900663 456.86288873 -157.32669739 456.879024 -159.32431418 456.89598733 C-170.95564524 456.8129817 -178.84114437 453.92091006 -187.296875 445.890625 C-193.2345368 439.11074167 -195.64942716 431.72656743 -195.64717102 422.86166382 C-195.65084771 422.08957569 -195.6545244 421.31748756 -195.6583125 420.52200282 C-195.66935344 417.92660847 -195.6731939 415.33125416 -195.67700195 412.73583984 C-195.68326638 410.87810132 -195.68991316 409.02036406 -195.69691467 407.16262817 C-195.71796278 401.05374017 -195.72831884 394.9448519 -195.73828125 388.8359375 C-195.74232875 386.73270276 -195.74644567 384.62946815 -195.75063133 382.52623367 C-195.7696859 372.64360685 -195.78391548 362.76098751 -195.7922433 352.87834585 C-195.80201235 341.47375605 -195.82832215 330.06936051 -195.86874419 318.66483915 C-195.89891894 309.84857341 -195.91371354 301.0323633 -195.91702431 292.21604693 C-195.91937357 286.95131034 -195.92831766 281.68678122 -195.95348549 276.42210007 C-195.97679438 271.46608679 -195.98098804 266.51041717 -195.97072411 261.55436325 C-195.9702293 259.73916479 -195.97653354 257.92394927 -195.99028015 256.1088028 C-196.11536519 238.60736365 -196.11536519 238.60736365 -191.5 231.375 C-191.04238281 230.57707031 -190.58476562 229.77914062 -190.11328125 228.95703125 C-184.75307804 221.66522327 -177.36059625 216.53587899 -168.5 214.375 C-163.6597209 214.01679238 -158.8500584 214.09138604 -154 214.1875 C-152.700625 214.20103516 -151.40125 214.21457031 -150.0625 214.22851562 C-146.87456588 214.26367666 -143.68750401 214.31289336 -140.5 214.375 C-140.50666183 213.38180252 -140.51332367 212.38860504 -140.52018738 211.36531067 C-140.58155602 201.90940747 -140.62623609 192.45354575 -140.65543652 182.99748707 C-140.67095439 178.13845702 -140.69193179 173.27959036 -140.72631836 168.4206543 C-140.75941602 163.71326326 -140.77695665 159.00602727 -140.78463173 154.29852867 C-140.79008643 152.52119195 -140.80073099 150.74386167 -140.81719017 148.96659279 C-141.15922262 110.42728683 -130.48632058 73.32440264 -103.19140625 45.09765625 C-102.30324219 44.19917969 -101.41507812 43.30070312 -100.5 42.375 C-99.66339844 41.46621094 -98.82679688 40.55742188 -97.96484375 39.62109375 C-72.8439248 12.98458391 -36.08051422 -0.09880424 0 0 Z M-71.5 81.375 C-102.27432423 120.12037871 -92.5 165.2259423 -92.5 214.375 C-31.12 214.375 30.26 214.375 93.5 214.375 C98.28013165 136.13547217 98.28013165 136.13547217 65.125 73.6875 C47.69724248 56.71272113 24.94579995 48.030332 0.75 47.0625 C-27.80392346 47.86884003 -52.53106512 60.04252371 -71.5 81.375 Z " fill="#95A5A6" transform="translate(255.5,27.625)"/>
</svg>
