<?xml version="1.0" encoding="UTF-8"?>
<svg version="1.1" xmlns="http://www.w3.org/2000/svg" width="666" height="375">
<path d="M0 0 C3.13304179 1.26903255 6.26830777 2.53219854 9.40625 3.7890625 C11.91563065 4.9606107 13.79555409 6.34666557 16 8 C16.76570313 8.30164063 17.53140625 8.60328125 18.3203125 8.9140625 C21.78528527 10.31823514 24.77442346 12.31691666 27.875 14.375 C32.49954457 17.42415027 37.16586325 20.29238888 42 23 C42 23.66 42 24.32 42 25 C42.56847656 25.27199219 43.13695312 25.54398438 43.72265625 25.82421875 C49.91564705 29.02162909 55.19826365 32.95817684 60 38 C62.38706169 40.09526468 64.79076716 42.16895796 67.20703125 44.23046875 C67.79871094 44.81441406 68.39039063 45.39835937 69 46 C69 46.66 69 47.32 69 48 C69.556875 48.226875 70.11375 48.45375 70.6875 48.6875 C79.92783381 53.93201378 87.38081911 65.05559334 93.9375 73.375 C94.39785645 73.95757568 94.85821289 74.54015137 95.33251953 75.14038086 C99.93613708 81.05457322 103.52005918 85.84005099 103.3984375 93.44140625 C102.14887171 101.46557872 95.70475527 107.7116318 90.37109375 113.4140625 C87.1209664 116.95868245 84.13844643 120.69865142 81.140625 124.45703125 C77.46049742 128.82886164 73.44817198 132.44146242 69 136 C68.278125 136.721875 67.55625 137.44375 66.8125 138.1875 C64.20051862 140.79948138 61.53519542 143.31669587 58.8125 145.8125 C57.95269531 146.60269531 57.09289062 147.39289063 56.20703125 148.20703125 C54 150 54 150 52 150 C52 150.66 52 151.32 52 152 C50.58227539 153.23339844 50.58227539 153.23339844 48.59765625 154.609375 C47.87658691 155.11388184 47.15551758 155.61838867 46.41259766 156.13818359 C45.63706543 156.67008301 44.8615332 157.20198242 44.0625 157.75 C43.2792334 158.29350098 42.4959668 158.83700195 41.68896484 159.39697266 C39.46364468 160.93772125 37.23220534 162.4692536 35 164 C34.09378906 164.63164062 33.18757813 165.26328125 32.25390625 165.9140625 C17.20873412 176.23863934 -0.57332866 184.57836892 -18 190 C-19.06605469 190.33257812 -20.13210938 190.66515625 -21.23046875 191.0078125 C-27.97987813 193.03038801 -34.58788848 194.5813438 -41.57421875 195.5078125 C-43.45289372 195.77772475 -45.33085929 196.07396418 -47.18310547 196.48803711 C-55.5278699 198.28582764 -63.74473872 198.33808539 -72.24121094 198.31567383 C-74.73156965 198.31252332 -77.22072553 198.3360131 -79.7109375 198.36132812 C-88.68265921 198.39589105 -96.99402175 197.76684782 -105.74243164 195.73681641 C-109.04939733 194.98882701 -112.32616359 194.49553467 -115.6875 194.0625 C-122.11194169 193.1023465 -127.90841421 191.20657205 -134 189 C-135.34537094 188.5478451 -136.69179135 188.0988048 -138.0390625 187.65234375 C-147.44673815 184.50003919 -156.26516542 180.74714159 -165 176 C-165.65919434 175.64502441 -166.31838867 175.29004883 -166.99755859 174.92431641 C-174.67996747 170.7679038 -182.12024221 166.48144977 -189.1796875 161.3125 C-190.96775565 159.94930628 -190.96775565 159.94930628 -193 159 C-193 158.34 -193 157.68 -193 157 C-194.00740234 156.70029297 -194.00740234 156.70029297 -195.03515625 156.39453125 C-199.11742221 154.47441406 -202.09966455 151.68589456 -205.4375 148.6875 C-206.7274213 147.54507221 -208.01778037 146.4031385 -209.30859375 145.26171875 C-209.92919678 144.70983887 -210.5497998 144.15795898 -211.18920898 143.58935547 C-212.87488267 142.10981715 -214.58369402 140.66698961 -216.3125 139.23828125 C-219.04775758 136.96022516 -221.51591627 134.54777819 -224 132 C-224.7425 131.278125 -225.485 130.55625 -226.25 129.8125 C-234.49417192 121.38096053 -241.82565619 112.33840818 -249 103 C-249.58007812 102.26523438 -250.16015625 101.53046875 -250.7578125 100.7734375 C-253.69120559 96.58551152 -253.54515973 91.89842053 -253 87 C-250.87101115 79.7067747 -245.13299413 73.39063477 -240 68 C-239.34 68 -238.68 68 -238 68 C-237.9071875 67.1646875 -237.9071875 67.1646875 -237.8125 66.3125 C-236.64533489 62.99056852 -234.56764415 61.40018909 -232 59 C-230.82933108 57.83734936 -229.66285198 56.67046892 -228.5 55.5 C-227.89929688 54.90058594 -227.29859375 54.30117187 -226.6796875 53.68359375 C-225.31859593 52.31933685 -223.96986467 50.94275584 -222.625 49.5625 C-219.53995788 46.55091126 -216.32656703 43.70965094 -213.0859375 40.8671875 C-211.02284031 39.07231313 -211.02284031 39.07231313 -209.3515625 37.2578125 C-208 36 -208 36 -206 36 C-205.67 35.01 -205.34 34.02 -205 33 C-202.6797237 31.1361715 -200.36619594 29.39795531 -197.9375 27.6875 C-196.55827919 26.6996578 -195.1793698 25.71138062 -193.80078125 24.72265625 C-193.13900879 24.25102051 -192.47723633 23.77938477 -191.79541016 23.29345703 C-189.700808 21.78445483 -187.6603965 20.21269218 -185.625 18.625 C-181.63655179 15.63578086 -177.4034332 13.3204814 -173 11 C-171.63117487 10.26494743 -170.26271813 9.52920865 -168.89453125 8.79296875 C-167.38830293 7.9864521 -165.88178959 7.18046755 -164.375 6.375 C-163.65836182 5.99045654 -162.94172363 5.60591309 -162.20336914 5.2097168 C-157.8792452 2.91478511 -153.53584779 0.85579844 -149 -1 C-147.9167041 -1.44545166 -147.9167041 -1.44545166 -146.81152344 -1.89990234 C-131.8275747 -7.9552272 -116.92214832 -11.41406832 -101 -14 C-99.59749501 -14.24778703 -98.19512601 -14.49634653 -96.79296875 -14.74609375 C-64.57896969 -19.89607155 -29.55877167 -13.14189707 0 0 Z M-129.4140625 41.6171875 C-131.36711396 44.02375653 -133.19856549 46.47885362 -135 49 C-135.68449219 49.83724609 -135.68449219 49.83724609 -136.3828125 50.69140625 C-147.84986309 65.07930935 -149.56340075 84.38816842 -147.79345703 102.0625 C-145.17756001 122.0006792 -134.19894994 137.63666561 -119.23046875 150.5234375 C-105.00436869 161.3920395 -85.74765876 166.63309002 -68 165 C-59.02032078 163.61773021 -50.00717917 161.36755227 -42 157 C-41.24074219 156.61585938 -40.48148437 156.23171875 -39.69921875 155.8359375 C-24.00012987 147.27279811 -10.65695212 132.01522462 -5 115 C0.53443339 93.69131111 -0.89813572 72.86422099 -11.95361328 53.71679688 C-15.55178156 47.81331593 -19.93617676 42.69329959 -25 38 C-25.54914063 37.46890625 -26.09828125 36.9378125 -26.6640625 36.390625 C-35.810968 27.88362646 -45.99224887 23.10733742 -58 20 C-58.73347656 19.77441406 -59.46695313 19.54882812 -60.22265625 19.31640625 C-84.65676398 12.48992143 -112.72314485 23.52185607 -129.4140625 41.6171875 Z " fill="#949494" transform="translate(408,96)"/>
<path d="M0 0 C8.54118355 5.21193019 14.19560154 11.32132796 18.26171875 20.4140625 C18.76058594 21.51234375 18.76058594 21.51234375 19.26953125 22.6328125 C23.451482 33.63398024 21.75238515 46.36396788 17.13671875 56.9140625 C15.11184244 60.52219477 13.03218412 63.94240067 10.13671875 66.9140625 C8.80923604 67.26998178 7.47646311 67.60751082 6.13671875 67.9140625 C5.64171875 69.3990625 5.64171875 69.3990625 5.13671875 70.9140625 C2.93733924 72.2643518 0.82329622 73.41887301 -1.48828125 74.5390625 C-2.09285156 74.85101563 -2.69742188 75.16296875 -3.3203125 75.484375 C-11.61149574 79.58577055 -21.70549052 80.25862361 -30.625 77.73828125 C-43.59983631 72.96046195 -52.75310145 66.22439005 -58.97265625 53.67578125 C-62.74799152 43.36484199 -62.56520206 29.34593703 -58.19140625 19.3046875 C-55.85036195 15.09080777 -53.11880298 11.46174644 -49.86328125 7.9140625 C-49.363125 7.35976562 -48.86296875 6.80546875 -48.34765625 6.234375 C-35.34090683 -6.44392115 -15.71912661 -7.70438029 0 0 Z " fill="#949494" transform="translate(352.86328125,150.0859375)"/>
<path d="M0 0 C0 0.66 0 1.32 0 2 C-2.82716095 2.94238698 -4.63176123 3.13465647 -7.5625 3.125 C-8.74005859 3.12886719 -8.74005859 3.12886719 -9.94140625 3.1328125 C-12 3 -12 3 -14 2 C-14 1.34 -14 0.68 -14 0 C-12.04235617 -0.19456705 -10.08384679 -0.38044247 -8.125 -0.5625 C-6.48917969 -0.71912109 -6.48917969 -0.71912109 -4.8203125 -0.87890625 C-2 -1 -2 -1 0 0 Z " fill="#A3A1A2" transform="translate(340,226)"/>
<path d="M0 0 C0.99 0 1.98 0 3 0 C5.3992233 4.64849515 5.19957409 8.91086074 5 14 C4.34 14 3.68 14 3 14 C2.8046875 12.01432292 2.609375 10.02864583 2.4140625 8.04296875 C2.07334609 5.70011858 2.07334609 5.70011858 0 3 C0 2.01 0 1.02 0 0 Z " fill="#9B9999" transform="translate(506,178)"/>
<path d="M0 0 C0 0.66 0 1.32 0 2 C-4.29 2 -8.58 2 -13 2 C-13 1.34 -13 0.68 -13 0 C-8.34462607 -0.83796731 -4.62921525 -1.0161692 0 0 Z " fill="#878787" transform="translate(326,291)"/>
<path d="M0 0 C0.99 0.33 1.98 0.66 3 1 C2.04578192 2.14926266 1.08647955 3.29430541 0.125 4.4375 C-0.40867187 5.07558594 -0.94234375 5.71367187 -1.4921875 6.37109375 C-3 8 -3 8 -5 9 C-5.33 8.01 -5.66 7.02 -6 6 C-5.34 5.34 -4.68 4.68 -4 4 C-3.01 4 -2.02 4 -1 4 C-0.67 2.68 -0.34 1.36 0 0 Z " fill="#A9A9A9" transform="translate(284,129)"/>
<path d="M0 0 C0.99 0.66 1.98 1.32 3 2 C0.36 3.65 -2.28 5.3 -5 7 C-5 6.01 -5 5.02 -5 4 C-2.5 1.8125 -2.5 1.8125 0 0 Z " fill="#A1A1A1" transform="translate(440,258)"/>
<path d="M0 0 C4.77576339 0.4682121 8.04476345 1.24331998 12 4 C10 5 10 5 7.6171875 4.22265625 C6.71226562 3.83980469 5.80734375 3.45695312 4.875 3.0625 C3.50988281 2.49208984 3.50988281 2.49208984 2.1171875 1.91015625 C1.41851562 1.60980469 0.71984375 1.30945313 0 1 C0 0.67 0 0.34 0 0 Z " fill="#A6A5A5" transform="translate(253,276)"/>
<path d="M0 0 C0 0.99 0 1.98 0 3 C-0.66 3 -1.32 3 -2 3 C-2.2475 3.78375 -2.495 4.5675 -2.75 5.375 C-4.15389099 8.32317108 -5.00675737 8.9024777 -8 10 C-7.34 8.68 -6.68 7.36 -6 6 C-5.34 6 -4.68 6 -4 6 C-3.8453125 5.071875 -3.8453125 5.071875 -3.6875 4.125 C-3 2 -3 2 0 0 Z " fill="#B8B7B7" transform="translate(174,158)"/>
<path d="M0 0 C2 0 2 0 4.1875 1.75 C5.0846875 2.86375 5.0846875 2.86375 6 4 C5.75 6.25 5.75 6.25 5 8 C5 7.34 5 6.68 5 6 C4.38125 5.731875 3.7625 5.46375 3.125 5.1875 C1 4 1 4 -1 1 C-0.67 0.67 -0.34 0.34 0 0 Z " fill="#A3A3A3" transform="translate(380,129)"/>
<path d="M0 0 C0.33 0.99 0.66 1.98 1 3 C-1.3125 4.5625 -1.3125 4.5625 -4 6 C-4.99 5.67 -5.98 5.34 -7 5 C-5.49336217 1.98672434 -2.96833589 1.38943382 0 0 Z " fill="#898889" transform="translate(361,214)"/>
<path d="M0 0 C-0.66 1.65 -1.32 3.3 -2 5 C-3.32 5 -4.64 5 -6 5 C-5.34 4.67 -4.68 4.34 -4 4 C-4.33 3.01 -4.66 2.02 -5 1 C-2 0 -2 0 0 0 Z " fill="#A2A2A2" transform="translate(281,88)"/>
<path d="M0 0 C2.97 0.495 2.97 0.495 6 1 C6.33 2.32 6.66 3.64 7 5 C4.0625 4.1875 4.0625 4.1875 1 3 C0.67 2.01 0.34 1.02 0 0 Z " fill="#9D9D9D" transform="translate(238,267)"/>
<path d="M0 0 C0.625 1.8125 0.625 1.8125 1 4 C0.01 5.485 0.01 5.485 -1 7 C-1.66 7 -2.32 7 -3 7 C-2.25 2.25 -2.25 2.25 0 0 Z " fill="#A1A1A1" transform="translate(476,228)"/>
<path d="M0 0 C1.37432457 3.81756824 0.67975039 7.07255329 0 11 C-0.33 11 -0.66 11 -1 11 C-1.33 8.03 -1.66 5.06 -2 2 C-1.34 2 -0.68 2 0 2 C0 1.34 0 0.68 0 0 Z " fill="#AAAAAA" transform="translate(261,167)"/>
<path d="M0 0 C2.97 0.495 2.97 0.495 6 1 C6.33 1.99 6.66 2.98 7 4 C4.69 3.67 2.38 3.34 0 3 C0 2.01 0 1.02 0 0 Z " fill="#9E9D9E" transform="translate(346,113)"/>
</svg>
