<?xml version="1.0" encoding="UTF-8"?>
<svg version="1.1" xmlns="http://www.w3.org/2000/svg" width="666" height="375">
<path d="M0 0 C5.2265316 2.53850015 8.9607208 6.68251194 13.00422668 10.7502594 C13.80479152 11.54770425 14.60535635 12.34514911 15.43018073 13.16675895 C18.11424247 15.84283676 20.79109108 18.52601461 23.46801758 21.20922852 C25.38894875 23.12855038 27.31136717 25.04638018 29.23370361 26.96429443 C33.91293888 31.63463819 38.58675329 36.31037069 43.25864408 40.98806018 C47.0539574 44.78788931 50.85121715 48.58576301 54.64987755 52.38224602 C55.19039554 52.92245754 55.73091353 53.46266907 56.28781086 54.01925064 C57.38581371 55.11661406 58.48382106 56.21397298 59.58183285 57.31132745 C69.87560949 67.59940193 80.16324823 77.8935965 90.4487988 88.18989413 C99.2816492 97.03168755 108.11974095 105.86821336 116.96166992 114.70092773 C127.22564048 124.95420675 137.48637374 135.21070747 147.74192542 145.47240776 C148.8343465 146.56546596 149.92677177 147.65851997 151.01920128 148.75156975 C151.82549112 149.55832242 151.82549112 149.55832242 152.64806965 150.38137313 C156.44340824 154.17844144 160.2410686 157.9731781 164.03962135 161.76703072 C168.66387061 166.38568387 173.28456625 171.00785666 177.90067527 175.63464613 C180.25764223 177.99688583 182.61672098 180.35690972 184.97908592 182.71375847 C187.53425298 185.26350621 190.0832522 187.81925929 192.63069153 190.37672424 C193.76367801 191.50301856 193.76367801 191.50301856 194.9195531 192.65206629 C195.93382107 193.6741575 195.93382107 193.6741575 196.96857929 194.71689701 C197.55823264 195.30687507 198.147886 195.89685312 198.75540763 196.5047093 C200 198 200 198 200 200 C201.32 200.66 202.64 201.32 204 202 C204 202.66 204 203.32 204 204 C204.568396 204.24459961 205.13679199 204.48919922 205.72241211 204.74121094 C210.35746427 207.30293555 213.85155226 211.52513272 217.5625 215.25 C218.42552734 216.09691406 219.28855469 216.94382812 220.17773438 217.81640625 C221.00724609 218.64527344 221.83675781 219.47414063 222.69140625 220.328125 C223.44623291 221.0799707 224.20105957 221.83181641 224.97875977 222.60644531 C228.69856869 227.01144673 230.59811184 231.12661909 230.3515625 236.9765625 C229.5569028 241.55027055 227.28798957 244.85920924 223.8125 247.9375 C219.68531934 249.49665714 216.34348637 249.76858783 212 249 C206.32353229 246.12618327 201.94436198 241.00560015 197.59375 236.47265625 C197.0203035 235.87669144 196.44685699 235.28072662 195.85603333 234.66670227 C193.45719692 232.16689626 191.06173676 229.66529672 188.69970703 227.13061523 C186.95567639 225.26547796 185.18429474 223.43031686 183.40625 221.59765625 C182.88204468 221.02072525 182.35783936 220.44379425 181.81774902 219.84938049 C179.75021346 217.75315165 178.01525049 216.08057948 174.9927063 215.84068298 C172.92951968 216.07724213 171.00715229 216.47252227 169 217 C168.13745605 217.17845459 167.27491211 217.35690918 166.38623047 217.54077148 C165.63744629 217.73227783 164.88866211 217.92378418 164.1171875 218.12109375 C163.25867188 218.33443359 162.40015625 218.54777344 161.515625 218.76757812 C159.77815858 219.20837027 158.04116417 219.65102787 156.3046875 220.09570312 C142.63870715 223.48169379 129.32009321 224.37551095 115.3125 224.3125 C114.47206146 224.31067719 113.63162292 224.30885437 112.76571655 224.30697632 C100.61255799 224.26256523 88.85798084 223.88897542 77 221 C76.19594727 220.81244141 75.39189453 220.62488281 74.56347656 220.43164062 C66.20472835 218.45773677 57.98766894 216.31612656 50.09375 212.8828125 C48.04175817 212.01760699 46.00952641 211.37920741 43.875 210.75 C33.44721086 207.37302914 23.44656747 201.48566905 14 196 C12.63294922 195.22462891 12.63294922 195.22462891 11.23828125 194.43359375 C10.31402344 193.89863281 9.38976562 193.36367188 8.4375 192.8125 C7.59058594 192.32394531 6.74367188 191.83539063 5.87109375 191.33203125 C5.25363281 190.89246094 4.63617188 190.45289063 4 190 C4 189.34 4 188.68 4 188 C3.34 187.79375 2.68 187.5875 2 187.375 C-2.07180186 185.50875748 -5.68796998 183.02438473 -9 180 C-9 179.34 -9 178.68 -9 178 C-9.78375 177.7525 -10.5675 177.505 -11.375 177.25 C-14.43941457 175.79075497 -14.61725761 174.94985044 -16 172 C-17.32702321 171.32085964 -18.66142157 170.65607165 -20 170 C-25.98348099 165.46210791 -31.43672623 159.9589559 -36 154 C-36 153.34 -36 152.68 -36 152 C-36.61875 151.773125 -37.2375 151.54625 -37.875 151.3125 C-40.61410209 149.62070165 -41.05024472 148.00755839 -42 145 C-42.66 145 -43.32 145 -44 145 C-45.44526736 143.26451831 -46.8087222 141.46024037 -48.125 139.625 C-48.84945312 138.62726563 -49.57390625 137.62953125 -50.3203125 136.6015625 C-52 134 -52 134 -52 132 C-52.66 132 -53.32 132 -54 132 C-59.14168038 124.44815694 -59.17185064 115.854233 -58 107 C-56.99432344 103.80524298 -55.89691618 101.78609565 -54 99 C-53.34 99 -52.68 99 -52 99 C-51.77828125 98.31679687 -51.5565625 97.63359375 -51.328125 96.9296875 C-49.63287539 93.1901663 -47.32209281 90.3018128 -44.75 87.125 C-44.0062915 86.19409546 -44.0062915 86.19409546 -43.24755859 85.24438477 C-37.02983215 77.49107757 -30.79142066 70.23313653 -23 64 C-22.113125 63.0925 -21.22625 62.185 -20.3125 61.25 C-18 59 -18 59 -16 59 C-15.566875 58.071875 -15.566875 58.071875 -15.125 57.125 C-14 55 -14 55 -12 53 C-11.01 53 -10.02 53 -9 53 C-8.67 52.01 -8.34 51.02 -8 50 C-5.78515625 48.17578125 -5.78515625 48.17578125 -3.0625 46.3125 C-2.16660156 45.68988281 -1.27070313 45.06726563 -0.34765625 44.42578125 C2 43 2 43 4 43 C4 42.34 4 41.68 4 41 C3.401875 40.731875 2.80375 40.46375 2.1875 40.1875 C0.00152146 39.00082594 -1.41332594 37.90400887 -3 36 C-3 35.34 -3 34.68 -3 34 C-3.556875 33.773125 -4.11375 33.54625 -4.6875 33.3125 C-7.65253447 31.6296426 -9.65353689 29.46378626 -12 27 C-12.70125 26.38125 -13.4025 25.7625 -14.125 25.125 C-17.54628832 21.2475399 -19.02823749 17.60953683 -18.9375 12.4375 C-17.61583395 7.59139115 -15.62787866 4.39532456 -11.8125 1.125 C-7.89221781 -0.44311288 -4.16489929 -0.72743104 0 0 Z M49 88 C48.35004703 89.41478135 47.70521278 90.83191487 47.0625 92.25 C46.52302734 93.43335938 46.52302734 93.43335938 45.97265625 94.640625 C40.88923827 106.97148629 41.9788837 127.22365003 46.45703125 139.69799805 C54.68932006 159.34796271 69.04794369 174.17106418 88.59375 182.7109375 C105.86076913 189.24547456 123.57034576 188.27704449 141 183 C141.66 182.34 142.32 181.68 143 181 C133.64995365 168.81655216 133.64995365 168.81655216 120.81640625 161.875 C117.13122252 161.99570203 113.63889074 162.42701368 110 163 C97.43109637 162.24478691 86.29735993 155.10125639 78 146 C70.1377237 136.12023393 67.76586415 126.56571449 68.1875 114.1875 C68.45123403 107.45695948 68.45123403 107.45695948 65.3125 101.6875 C63.69354029 100.20000195 63.69354029 100.20000195 62 99 C61.154375 98.29875 60.30875 97.5975 59.4375 96.875 C58.633125 96.25625 57.82875 95.6375 57 95 C55.33333333 93.33333333 53.66666667 91.66666667 52 90 C51.01 89.34 50.02 88.68 49 88 Z " fill="#969696" transform="translate(218,72)"/>
<path d="M0 0 C2.42864598 -0.00218382 4.85683442 -0.02039678 7.28540039 -0.03930664 C48.07511205 -0.19203818 95.68219939 16.06484422 126.13110352 44.18530273 C126.13110352 44.84530273 126.13110352 45.50530273 126.13110352 46.18530273 C126.69958008 46.27295898 127.26805664 46.36061523 127.85375977 46.45092773 C130.76317038 47.38912532 132.32641151 48.86797839 134.56860352 50.93530273 C135.3562207 51.6584668 136.14383789 52.38163086 136.95532227 53.12670898 C139.39553605 55.43549295 141.78838942 57.77751324 144.13110352 60.18530273 C144.97672852 61.01030273 145.82235352 61.83530273 146.69360352 62.68530273 C153.13110352 69.28786684 153.13110352 69.28786684 153.13110352 72.18530273 C153.70860352 72.39155273 154.28610352 72.59780273 154.88110352 72.81030273 C157.95049195 74.68604011 159.22425089 77.17124537 161.13110352 80.18530273 C161.58485352 80.63905273 162.03860352 81.09280273 162.50610352 81.56030273 C169.69918415 88.75338337 176.0478745 98.29653589 176.63110352 108.68530273 C176.00451555 119.22672379 169.7763848 126.78196666 163.37084961 134.64428711 C161.00080326 137.59027619 158.76840094 140.64449825 156.50610352 143.67358398 C156.05235352 144.17245117 155.59860352 144.67131836 155.13110352 145.18530273 C154.47110352 145.18530273 153.81110352 145.18530273 153.13110352 145.18530273 C152.86297852 145.76795898 152.59485352 146.35061523 152.31860352 146.95092773 C151.11629361 149.21316874 149.79284439 150.99106591 148.13110352 152.93530273 C147.61547852 153.54889648 147.09985352 154.16249023 146.56860352 154.79467773 C145.13110352 156.18530273 145.13110352 156.18530273 143.13110352 156.18530273 C143.13110352 156.84530273 143.13110352 157.50530273 143.13110352 158.18530273 C141.45141602 159.91186523 141.45141602 159.91186523 139.25610352 161.81030273 C138.53680664 162.44194336 137.81750977 163.07358398 137.07641602 163.72436523 C135.13110352 165.18530273 135.13110352 165.18530273 133.13110352 165.18530273 C132.79079102 166.11342773 132.79079102 166.11342773 132.44360352 167.06030273 C130.75180517 169.79940482 129.13866191 170.23554745 126.13110352 171.18530273 C126.13110352 171.84530273 126.13110352 172.50530273 126.13110352 173.18530273 C123.82943565 174.97614125 121.52871451 176.65789516 119.13110352 178.31030273 C118.46336914 178.77823242 117.79563477 179.24616211 117.10766602 179.72827148 C115.45296085 180.8865651 113.79255045 182.03670039 112.13110352 183.18530273 C110.09276927 181.91134383 108.09258225 180.57468351 106.13110352 179.18530273 C106.13110352 178.52530273 106.13110352 177.86530273 106.13110352 177.18530273 C105.14110352 176.85530273 104.15110352 176.52530273 103.13110352 176.18530273 C101.79214719 174.52315006 100.45980209 172.85566666 99.13110352 171.18530273 C97.68345648 169.99501517 96.23483914 168.80574893 94.77172852 167.63452148 C92.18577737 165.35026464 90.02690804 162.7209964 87.78735352 160.10327148 C84.79105166 156.63349741 81.61841328 153.58310663 78.06860352 150.68530273 C75.32380354 148.34930276 73.31861893 146.02907277 71.13110352 143.18530273 C69.81615839 141.83383136 68.48845494 140.49417732 67.13110352 139.18530273 C67.32446289 138.62842773 67.51782227 138.07155273 67.71704102 137.49780273 C67.97743164 136.73467773 68.23782227 135.97155273 68.50610352 135.18530273 C68.76133789 134.44280273 69.01657227 133.70030273 69.27954102 132.93530273 C75.20779485 113.79084997 74.58745251 93.13698964 65.13110352 75.18530273 C61.79140698 69.48603799 58.06510027 64.09481852 53.35375977 59.44311523 C51.13110352 57.18530273 51.13110352 57.18530273 51.13110352 55.18530273 C50.58067383 54.92491211 50.03024414 54.66452148 49.46313477 54.39624023 C46.80328072 53.01507649 44.33394423 51.43975966 41.81860352 49.81030273 C40.8427832 49.18897461 39.86696289 48.56764648 38.86157227 47.92749023 C37.31668519 46.94176829 35.77500285 45.95085137 34.24438477 44.94311523 C20.66111168 36.45768072 0.78357375 36.29715375 -14.49389648 39.56030273 C-17.48280671 40.26702315 -20.37167546 41.00766586 -23.26342773 42.04077148 C-25.30639648 42.74780273 -25.30639648 42.74780273 -28.86889648 43.18530273 C-33.53103138 40.62833803 -36.67642473 36.33551601 -39.86889648 32.18530273 C-42.28441429 29.64591222 -44.66789037 27.34218556 -47.43139648 25.18530273 C-49.86889648 23.18530273 -49.86889648 23.18530273 -51.80639648 20.74780273 C-54.23339016 17.73244696 -56.8439769 15.59148877 -59.86889648 13.18530273 C-59.53889648 11.86530273 -59.20889648 10.54530273 -58.86889648 9.18530273 C-50.97698952 7.02565425 -43.06853752 4.93493591 -35.11889648 2.99780273 C-34.45962158 2.83119141 -33.80034668 2.66458008 -33.12109375 2.49291992 C-22.23807083 -0.11247871 -11.12393916 -0.00111608 0 0 Z " fill="#969696" transform="translate(330.868896484375,78.814697265625)"/>
<path d="M0 0 C14.60594753 4.93334883 24.72729777 12.49535453 32.08984375 26.12890625 C36.49766315 35.67176106 38.29707928 47.92054217 35.21484375 58.12890625 C30.72120675 56.7558505 28.98455192 54.85070161 26.21484375 51.12890625 C23.79932595 48.58951574 21.41584987 46.28578907 18.65234375 44.12890625 C16.07007322 42.01012018 14.26594289 39.75687703 12.21484375 37.12890625 C9.79932595 34.58951574 7.41584987 32.28578907 4.65234375 30.12890625 C2.21484375 28.12890625 2.21484375 28.12890625 0.27734375 25.69140625 C-1.76214751 22.98340028 -1.76214751 22.98340028 -4.72265625 20.69140625 C-7.85002399 18.07462916 -10.18046431 15.25453658 -12.78515625 12.12890625 C-13.87073772 11.19030374 -14.97499597 10.27282778 -16.09765625 9.37890625 C-16.98453125 8.63640625 -17.87140625 7.89390625 -18.78515625 7.12890625 C-18.78515625 6.46890625 -18.78515625 5.80890625 -18.78515625 5.12890625 C-19.77515625 4.79890625 -20.76515625 4.46890625 -21.78515625 4.12890625 C-21.78515625 2.80890625 -21.78515625 1.48890625 -21.78515625 0.12890625 C-15.86284201 -2.83225087 -6.2455654 -1.43731794 0 0 Z " fill="#989898" transform="translate(344.78515625,139.87109375)"/>
<path d="M0 0 C0.55985596 0.03029297 1.11971191 0.06058594 1.6965332 0.09179688 C4.23514498 0.22869184 6.77382091 0.36435938 9.3125 0.5 C10.19357422 0.54769531 11.07464844 0.59539062 11.98242188 0.64453125 C12.82998047 0.68964844 13.67753906 0.73476562 14.55078125 0.78125 C15.72120972 0.8440918 15.72120972 0.8440918 16.9152832 0.90820312 C18.60882396 0.98277524 20.30481821 1 22 1 C22.33 1.99 22.66 2.98 23 4 C17.39 4 11.78 4 6 4 C6 3.34 6 2.68 6 2 C4.02 2 2.04 2 0 2 C0 1.34 0 0.68 0 0 Z " fill="#A8A8A8" transform="translate(322,232)"/>
<path d="M0 0 C5.28 0 10.56 0 16 0 C15.67 0.99 15.34 1.98 15 3 C11.04 2.67 7.08 2.34 3 2 C2.67 2.66 2.34 3.32 2 4 C1.01 4 0.02 4 -1 4 C-0.67 2.68 -0.34 1.36 0 0 Z " fill="#ACACAC" transform="translate(325,139)"/>
<path d="M0 0 C0 0.99 0 1.98 0 3 C-5.38027025 4.19088986 -10.45291384 5.2919519 -16 5 C-12.04477421 1.04477421 -5.5114368 -0.53336485 0 0 Z " fill="#A5A5A5" transform="translate(324,114)"/>
<path d="M0 0 C0 3.50481678 -0.49237247 3.92840405 -2.75 6.4375 C-3.29398438 7.0459375 -3.83796875 7.654375 -4.3984375 8.28125 C-6.22024929 10.23636509 -8.07356035 12.14765418 -10 14 C-10.66 13.67 -11.32 13.34 -12 13 C-10.37915112 11.01730109 -8.75360546 9.03881048 -7.125 7.0625 C-6.66480469 6.49853516 -6.20460937 5.93457031 -5.73046875 5.35351562 C-2.2265625 1.11328125 -2.2265625 1.11328125 0 0 Z " fill="#BCBCBC" transform="translate(187,144)"/>
<path d="M0 0 C-4.75 2 -4.75 2 -7 2 C-8.63676257 3.9600281 -8.63676257 3.9600281 -10 6 C-10.66 5.67 -11.32 5.34 -12 5 C-11.67 3.68 -11.34 2.36 -11 1 C-3.57142857 -1.42857143 -3.57142857 -1.42857143 0 0 Z " fill="#B1B1B1" transform="translate(283,87)"/>
<path d="M0 0 C1.60568666 0.28317926 3.20952047 0.57687791 4.8125 0.875 C6.15248047 1.11863281 6.15248047 1.11863281 7.51953125 1.3671875 C10 2 10 2 13 4 C8.71 3.67 4.42 3.34 0 3 C0 2.01 0 1.02 0 0 Z " fill="#AEAEAE" transform="translate(300,291)"/>
<path d="M0 0 C1.12894876 0.93274109 2.25300876 1.87140122 3.375 2.8125 C4.00148438 3.33457031 4.62796875 3.85664063 5.2734375 4.39453125 C7 6 7 6 9 9 C4.74822077 8.52758009 2.70030797 6.15035929 0 3 C0 2.01 0 1.02 0 0 Z " fill="#A8A8A8" transform="translate(334,187)"/>
<path d="M0 0 C0 0.66 0 1.32 0 2 C-1.258125 1.87625 -2.51625 1.7525 -3.8125 1.625 C-4.87404297 1.52058594 -4.87404297 1.52058594 -5.95703125 1.4140625 C-8 1 -8 1 -11 -1 C-7.50388094 -2.74805953 -3.65464422 -0.94750035 0 0 Z " fill="#A9A9A9" transform="translate(360,118)"/>
<path d="M0 0 C4.12751449 0.60698743 7.3321148 2.03810791 11 4 C11 4.33 11 4.66 11 5 C6.94393835 4.53199289 3.53411321 4.12046792 0 2 C0 1.34 0 0.68 0 0 Z " fill="#A8A8A8" transform="translate(404,93)"/>
<path d="M0 0 C2.88575819 0.39803561 3.82189513 0.79009069 5.75 3.0625 C6.1625 3.701875 6.575 4.34125 7 5 C4 5 4 5 1 4 C0.3125 1.9375 0.3125 1.9375 0 0 Z " fill="#AAAAAA" transform="translate(408,263)"/>
<path d="M0 0 C1.32 0 2.64 0 4 0 C4 0.66 4 1.32 4 2 C4.66 2 5.32 2 6 2 C6.66 3.32 7.32 4.64 8 6 C5 6 5 6 3.61328125 4.6875 C2.40885417 3.125 1.20442708 1.5625 0 0 Z " fill="#ACACAC" transform="translate(352,244)"/>
<path d="M0 0 C0.33 0.99 0.66 1.98 1 3 C1.99 3.33 2.98 3.66 4 4 C4.33 4.99 4.66 5.98 5 7 C3.68 6.67 2.36 6.34 1 6 C1 5.34 1 4.68 1 4 C-0.32 3.34 -1.64 2.68 -3 2 C-2.01 1.34 -1.02 0.68 0 0 Z " fill="#A1A1A1" transform="translate(381,130)"/>
<path d="M0 0 C-4.56327794 3.53286034 -8.49633208 3.32374517 -14 3 C-14 2.67 -14 2.34 -14 2 C-11.36 2 -8.72 2 -6 2 C-6 1.34 -6 0.68 -6 0 C-3.50907189 -1.24546405 -2.58919267 -0.7767578 0 0 Z " fill="#C3C3C3" transform="translate(444,318)"/>
<path d="M0 0 C0.66 0.33 1.32 0.66 2 1 C2 1.99 2 2.98 2 4 C2.66 4.33 3.32 4.66 4 5 C3.67 5.99 3.34 6.98 3 8 C1.29115995 6.37660195 -0.37446717 4.70680947 -2 3 C-2 2.34 -2 1.68 -2 1 C-1.34 0.67 -0.68 0.34 0 0 Z " fill="#A0A0A0" transform="translate(196,235)"/>
<path d="M0 0 C2.62901288 1.52206009 4.84365964 2.84365964 7 5 C6.67 5.99 6.34 6.98 6 8 C4.99403703 7.0479279 3.99538437 6.08812654 3 5.125 C2.443125 4.59132812 1.88625 4.05765625 1.3125 3.5078125 C0 2 0 2 0 0 Z " fill="#AAAAAA" transform="translate(294,215)"/>
</svg>
